<?xml version="1.0" encoding="UTF-8"?>
<svg width="1592px" height="1189px" viewBox="0 0 1592 1189" version="1.1" xmlns="http://www.w3.org/2000/svg" xmlns:xlink="http://www.w3.org/1999/xlink">
    <title>caniuse background</title>
    <g id="caniuse-background" stroke="none" stroke-width="1" fill="none" fill-rule="evenodd" fill-opacity="0.15">
        <path d="M943.517602,-1.79412041e-13 C468.040565,-73.2000201 295.035203,302.960476 295.035203,457.53816 C295.035203,639.39854 718.728588,759.37879 1161.70701,759.37879 C1472.77057,759.37879 1592,668 1592,668 C1592,668 1592,445.333333 1592,-4.08562073e-14 C1476.66309,48.8000134 1260.50229,48.8000134 943.517602,-1.79412041e-13 Z" id="Path-3" fill="#E10098"></path>
        <path d="M0,667 C201.925065,515.490038 366.169437,463.823372 492.733116,512 C682.578635,584.264943 774.421188,793.686655 743.52614,950.024188 C712.631092,1106.36172 520.783305,1136.98407 358.946002,1189 C358.946002,1189 239.297335,1189 0,1189 L0,667 Z" id="Path-4" fill="#CDF27E"></path>
    </g>
</svg>