<?xml version="1.0" encoding="UTF-8"?>
<svg width="512px" height="512px" viewBox="0 0 512 512" version="1.1" xmlns="http://www.w3.org/2000/svg" xmlns:xlink="http://www.w3.org/1999/xlink">
    <title>caniuse favicon</title>
    <g id="caniuse-favicon" stroke="none" stroke-width="1" fill="none" fill-rule="evenodd">
        <path d="M259.692014,369 L259.692014,335.250454 C259.692014,325.217184 260.905229,318.218365 263.331658,314.254 C265.758088,310.289634 271.279525,306.262342 279.89597,302.172124 L279.89597,302.172124 L310.919359,287.594166 C338.688888,274.743189 361.144711,257.354517 378.286826,235.42815 C395.428942,213.501783 404,186.65317 404,154.882311 C404,126.628341 397.647642,102.146461 384.942925,81.4366713 C372.238208,60.7268818 354.74522,44.8099892 332.463961,33.6859935 C310.182702,22.5619978 284.486984,17 255.376809,17 C225.819752,17 199.980892,22.6738671 177.860231,34.0216012 C155.73957,45.3693353 138.566033,61.1114322 126.33962,81.247892 C114.113207,101.384352 108,125.034204 108,152.19745 L108,152.19745 L165.553519,152.19745 C165.553519,126.24379 173.597396,105.693065 189.685149,90.5452731 C205.772903,75.3974814 227.60728,67.8235855 255.188281,67.8235855 C282.510928,67.8235855 304.45528,75.6054882 321.021337,91.1692936 C337.587394,106.733099 345.870422,127.907845 345.870422,154.693532 C345.870422,170.928552 342.710826,184.896473 336.391635,196.597295 C330.072444,208.298116 321.150514,218.207282 309.625845,226.324792 C298.101176,234.442303 284.808181,241.825671 269.74686,248.474898 L269.74686,248.474898 L246.08655,259.025564 C233.385325,264.521139 224.018258,270.146064 217.985351,275.900337 C211.952443,281.65461 208.169657,288.798508 206.636991,297.332032 C205.104325,305.865556 204.337992,317.099673 204.337992,331.034383 L204.337992,331.034383 L204.337992,369 L259.692014,369 Z M273,495 L273,414 L191,414 L191,495 L273,495 Z" id="?" fill="#E10098" fill-rule="nonzero"></path>
    </g>
</svg>