<?xml version="1.0" encoding="UTF-8"?>
<svg width="24px" height="19px" viewBox="0 0 24 19" version="1.1" xmlns="http://www.w3.org/2000/svg" xmlns:xlink="http://www.w3.org/1999/xlink">
    <title>Group 3</title>
    <g id="Youtube-banner" stroke="none" stroke-width="1" fill="none" fill-rule="evenodd">
        <g id="Group-3">
            <g id="logo-discord--Streamline-Pixel" transform="translate(12.000000, 0.000000)" fill="#000000">
                <rect id="Rectangle" x="0" y="2" width="2" height="2"></rect>
                <rect id="Rectangle" x="2" y="0" width="6" height="2"></rect>
                <rect id="Rectangle" x="8" y="2" width="2" height="2"></rect>
                <rect id="Rectangle" x="10" y="4" width="2" height="11"></rect>
                <rect id="Rectangle" x="8" y="15" width="2" height="2"></rect>
                <rect id="Rectangle" x="2" y="17" width="6" height="2"></rect>
                <rect id="Rectangle" x="0" y="13" width="6" height="2"></rect>
                <rect id="Rectangle" x="3" y="6" width="3" height="3"></rect>
                <rect id="Rectangle" x="6" y="13" width="2" height="2"></rect>
            </g>
            <g id="logo-discord--Streamline-Pixel" transform="translate(6.000000, 9.500000) scale(-1, 1) translate(-6.000000, -9.500000) "></g>
            <rect id="Rectangle" fill="#000000" transform="translate(11.000000, 3.000000) scale(-1, 1) translate(-11.000000, -3.000000) " x="10" y="2" width="2" height="2"></rect>
            <rect id="Rectangle" fill="#000000" transform="translate(7.000000, 1.000000) scale(-1, 1) translate(-7.000000, -1.000000) " x="4" y="0" width="6" height="2"></rect>
            <rect id="Rectangle" fill="#000000" transform="translate(3.000000, 3.000000) scale(-1, 1) translate(-3.000000, -3.000000) " x="2" y="2" width="2" height="2"></rect>
            <rect id="Rectangle" fill="#000000" transform="translate(1.000000, 9.500000) scale(-1, 1) translate(-1.000000, -9.500000) " x="0" y="4" width="2" height="11"></rect>
            <rect id="Rectangle" fill="#000000" transform="translate(3.000000, 16.000000) scale(-1, 1) translate(-3.000000, -16.000000) " x="2" y="15" width="2" height="2"></rect>
            <rect id="Rectangle" fill="#000000" transform="translate(7.000000, 18.000000) scale(-1, 1) translate(-7.000000, -18.000000) " x="4" y="17" width="6" height="2"></rect>
            <rect id="Rectangle" fill="#000000" transform="translate(9.000000, 14.000000) scale(-1, 1) translate(-9.000000, -14.000000) " x="6" y="13" width="6" height="2"></rect>
            <rect id="Rectangle" fill="#000000" transform="translate(7.500000, 7.500000) scale(-1, 1) translate(-7.500000, -7.500000) " x="6" y="6" width="3" height="3"></rect>
            <rect id="Rectangle" fill="#000000" transform="translate(5.000000, 14.000000) scale(-1, 1) translate(-5.000000, -14.000000) " x="4" y="13" width="2" height="2"></rect>
        </g>
    </g>
</svg>