<?xml version="1.0" encoding="UTF-8"?>
<svg width="1933px" height="591px" viewBox="0 0 1933 591" version="1.1" xmlns="http://www.w3.org/2000/svg" xmlns:xlink="http://www.w3.org/1999/xlink">
    <title>caniuse logo</title>
    <g id="caniuse-logo" stroke="none" stroke-width="1" fill="none" fill-rule="evenodd">
        <path d="M275.5,33 C302.28581,33 324,54.7141896 324,81.5 C324,86.6473091 323.198147,91.6073355 321.712541,96.26198 L420.266935,153.169947 C429.107332,143.828024 441.623062,138 455.5,138 C482.28581,138 504,159.71419 504,186.5 C504,210.03436 487.237499,229.653628 465.000396,234.069903 L465.000396,345.930097 C487.237499,350.346372 504,369.96564 504,393.5 C504,420.28581 482.28581,442 455.5,442 C440.985618,442 427.960371,435.624252 419.072161,425.520656 L316.289715,484.870473 C320.553431,492.089275 323,500.508924 323,509.5 C323,536.28581 301.28581,558 274.5,558 C247.71419,558 226,536.28581 226,509.5 C226,500.508509 228.446794,492.088498 232.710875,484.869474 L131.244875,426.280804 C122.37917,435.942987 109.646931,442 95.5,442 C68.7141896,442 47,420.28581 47,393.5 C47,370.676272 62.7654801,351.53477 84.0005069,346.371426 L84.0005069,233.628574 C62.7654801,228.46523 47,209.323728 47,186.5 C47,159.71419 68.7141896,138 95.5,138 C109.006113,138 121.222796,143.520708 130.016526,152.428603 L228.986023,95.2815785 C227.693683,90.9130888 227,86.2875536 227,81.5 C227,54.7141896 248.71419,33 275.5,33 Z M407.930097,403.000396 L143.069903,403.000396 C142.754771,404.587168 142.362229,406.146064 141.896376,407.672983 L247.94585,468.908585 C255.574232,463.908086 264.697506,461 274.5,461 C284.302066,461 293.424972,463.907832 301.053151,468.90793 L408.813836,406.685431 C408.472833,405.475604 408.177591,404.246597 407.930097,403.000396 Z M261.148007,127.841381 L127.551499,357.099318 C134.781846,363.470722 140.098857,371.962564 142.529939,381.602252 L408.470061,381.602252 C410.834206,372.227983 415.927544,363.939221 422.855631,357.630411 L289.421476,127.97236 C285.011885,129.291418 280.338692,130 275.5,130 C270.503529,130 265.683525,129.244454 261.148007,127.841381 Z M310.825059,114.732572 C309.945819,115.666819 309.029933,116.566185 308.079697,117.428375 L441.494291,347.052921 C442.177363,346.84723 442.866786,346.656195 443.562194,346.480182 L443.562194,233.519818 C422.548898,228.201184 407,209.166412 407,186.5 C407,181.30577 407.816538,176.302252 409.328256,171.610805 Z M239.479609,113.977997 L141.348039,170.641598 C143.06657,175.610832 144,180.946409 144,186.5 C144,209.879731 127.457046,229.395648 105.438,233.980888 L105.438,346.019112 C106.551331,346.250951 107.650661,346.520962 108.734561,346.827712 L242.589743,117.125663 C241.506074,116.124101 240.468198,115.073714 239.479609,113.977997 Z" id="Combined-Shape" fill="#E10098"></path>
        <text id="GraphQL" font-family="HostGrotesk-Light, Host Grotesk" font-size="319" font-weight="300" fill="#E10098">
            <tspan x="579.084" y="408">GraphQL</tspan>
        </text>
    </g>
</svg>