<?xml version="1.0" encoding="UTF-8"?>
<svg width="2098px" height="591px" viewBox="0 0 2098 591" version="1.1" xmlns="http://www.w3.org/2000/svg" xmlns:xlink="http://www.w3.org/1999/xlink">
    <title>caniuse logo</title>
    <g id="caniuse-logo" stroke="none" stroke-width="1" fill="none" fill-rule="evenodd">
        <path d="M275.5,33 C302.28581,33 324,54.7141896 324,81.5 C324,86.6473091 323.198147,91.6073355 321.712541,96.26198 L420.266935,153.169947 C429.107332,143.828024 441.623062,138 455.5,138 C482.28581,138 504,159.71419 504,186.5 C504,210.03436 487.237499,229.653628 465.000396,234.069903 L465.000396,345.930097 C487.237499,350.346372 504,369.96564 504,393.5 C504,420.28581 482.28581,442 455.5,442 C440.985618,442 427.960371,435.624252 419.072161,425.520656 L316.289715,484.870473 C320.553431,492.089275 323,500.508924 323,509.5 C323,536.28581 301.28581,558 274.5,558 C247.71419,558 226,536.28581 226,509.5 C226,500.508509 228.446794,492.088498 232.710875,484.869474 L131.244875,426.280804 C122.37917,435.942987 109.646931,442 95.5,442 C68.7141896,442 47,420.28581 47,393.5 C47,370.676272 62.7654801,351.53477 84.0005069,346.371426 L84.0005069,233.628574 C62.7654801,228.46523 47,209.323728 47,186.5 C47,159.71419 68.7141896,138 95.5,138 C109.006113,138 121.222796,143.520708 130.016526,152.428603 L228.986023,95.2815785 C227.693683,90.9130888 227,86.2875536 227,81.5 C227,54.7141896 248.71419,33 275.5,33 Z M407.930097,403.000396 L143.069903,403.000396 C142.754771,404.587168 142.362229,406.146064 141.896376,407.672983 L247.94585,468.908585 C255.574232,463.908086 264.697506,461 274.5,461 C284.302066,461 293.424972,463.907832 301.053151,468.90793 L408.813836,406.685431 C408.472833,405.475604 408.177591,404.246597 407.930097,403.000396 Z M261.148007,127.841381 L127.551499,357.099318 C134.781846,363.470722 140.098857,371.962564 142.529939,381.602252 L408.470061,381.602252 C410.834206,372.227983 415.927544,363.939221 422.855631,357.630411 L289.421476,127.97236 C285.011885,129.291418 280.338692,130 275.5,130 C270.503529,130 265.683525,129.244454 261.148007,127.841381 Z M310.825059,114.732572 C309.945819,115.666819 309.029933,116.566185 308.079697,117.428375 L441.494291,347.052921 C442.177363,346.84723 442.866786,346.656195 443.562194,346.480182 L443.562194,233.519818 C422.548898,228.201184 407,209.166412 407,186.5 C407,181.30577 407.816538,176.302252 409.328256,171.610805 Z M239.479609,113.977997 L141.348039,170.641598 C143.06657,175.610832 144,180.946409 144,186.5 C144,209.879731 127.457046,229.395648 105.438,233.980888 L105.438,346.019112 C106.551331,346.250951 107.650661,346.520962 108.734561,346.827712 L242.589743,117.125663 C241.506074,116.124101 240.468198,115.073714 239.479609,113.977997 Z" id="Combined-Shape" fill="#E10098"></path>
        <path d="M686.9105,410.828 C712.217833,410.828 732.740167,404.820167 748.4775,392.8045 C764.214833,380.788833 774.6355,363.509667 779.7395,340.967 L779.7395,340.967 L754.8575,340.967 C750.816833,357.129667 743.214,369.570667 732.049,378.29 C720.884,387.009333 705.837833,391.369 686.9105,391.369 C670.3225,391.369 655.808,387.541 643.367,379.885 C630.926,372.229 621.249667,361.2235 614.338,346.8685 C607.426333,332.5135 603.9705,315.340667 603.9705,295.35 C603.9705,275.359333 607.426333,258.1865 614.338,243.8315 C621.249667,229.4765 630.926,218.471 643.367,210.815 C655.808,203.159 670.3225,199.331 686.9105,199.331 C705.837833,199.331 720.830833,203.743833 731.8895,212.5695 C742.948167,221.395167 750.178833,233.038667 753.5815,247.5 L753.5815,247.5 L778.4635,247.5 C773.784833,226.020667 763.683167,209.3795 748.1585,197.5765 C732.633833,185.7735 712.217833,179.872 686.9105,179.872 C665.2185,179.872 646.450667,184.710167 630.607,194.3865 C614.763333,204.062833 602.535,217.567167 593.922,234.8995 C585.309,252.231833 581.0025,272.382 581.0025,295.35 C581.0025,318.318 585.309,338.468167 593.922,355.8005 C602.535,373.132833 614.763333,386.637167 630.607,396.3135 C646.450667,405.989833 665.2185,410.828 686.9105,410.828 Z M857.5755,410.828 C871.824167,410.828 883.255,407.7975 891.868,401.7365 C900.481,395.6755 907.126833,388.285333 911.8055,379.566 C913.506833,390.624667 917.494333,397.961667 923.768,401.577 C930.041667,405.192333 938.069833,407 947.8525,407 L947.8525,407 L952.6375,407 L952.6375,386.903 L950.0855,386.903 C945.832167,386.903 942.482667,386.530833 940.037,385.7865 C937.591333,385.042167 935.89,382.968667 934.933,379.566 C933.976,376.163333 933.4975,370.634 933.4975,362.978 L933.4975,362.978 L933.4975,309.705 C933.4975,290.565 928.234,274.987167 917.707,262.9715 C907.18,250.955833 890.964167,244.948 869.0595,244.948 C858.426167,244.948 848.271333,246.649333 838.595,250.052 C828.918667,253.454667 820.784167,258.771333 814.1915,266.002 C807.598833,273.232667 803.6645,282.59 802.3885,294.074 L802.3885,294.074 L825.6755,294.074 C827.5895,283.228 832.534,275.518833 840.509,270.9465 C848.484,266.374167 858.000833,264.088 869.0595,264.088 C882.032167,264.088 892.293333,267.969167 899.843,275.7315 C907.392667,283.493833 911.1675,294.818333 911.1675,309.705 L911.1675,309.705 L911.1675,316.404 C906.276167,314.702667 900.0025,313.160833 892.3465,311.7785 C884.6905,310.396167 876.502833,309.705 867.7835,309.705 C847.154833,309.705 830.513667,314.277333 817.86,323.422 C805.206333,332.566667 798.8795,345.858333 798.8795,363.297 C798.8795,371.378333 801.006167,379.0875 805.2595,386.4245 C809.512833,393.7615 815.999167,399.663 824.7185,404.129 C833.437833,408.595 844.390167,410.828 857.5755,410.828 Z M859.8085,391.688 C847.473833,391.688 838.010167,388.923333 831.4175,383.394 C824.824833,377.864667 821.5285,370.953 821.5285,362.659 C821.5285,353.089 825.143833,345.007667 832.3745,338.415 C839.605167,331.822333 851.939833,328.526 869.3785,328.526 C877.0345,328.526 884.637333,329.164 892.187,330.44 C899.736667,331.716 906.0635,333.098333 911.1675,334.587 C911.1675,344.157 909.094,353.301667 904.947,362.021 C900.8,370.740333 894.8985,377.864667 887.2425,383.394 C879.5865,388.923333 870.441833,391.688 859.8085,391.688 Z M1008.4625,407 L1008.4625,325.017 C1008.4625,305.451667 1013.2475,290.458667 1022.8175,280.038 C1032.3875,269.617333 1044.40317,264.407 1058.8645,264.407 C1072.68783,264.407 1083.268,268.660333 1090.605,277.167 C1097.942,285.673667 1101.6105,298.646333 1101.6105,316.085 L1101.6105,316.085 L1101.6105,407 L1123.9405,407 L1123.9405,313.533 C1123.9405,289.927 1118.30483,272.594667 1107.0335,261.536 C1095.76217,250.477333 1080.98183,244.948 1062.6925,244.948 C1050.99583,244.948 1040.3625,247.712667 1030.7925,253.242 C1021.2225,258.771333 1013.77917,266.427333 1008.4625,276.21 L1008.4625,276.21 L1008.4625,248.776 L986.1325,248.776 L986.1325,407 L1008.4625,407 Z M1292.0535,407 L1292.0535,183.7 L1269.7235,183.7 L1269.7235,407 L1292.0535,407 Z M1494.6185,410.828 C1506.1025,410.828 1516.3105,408.169667 1525.2425,402.853 C1534.1745,397.536333 1540.97983,389.986667 1545.6585,380.204 L1545.6585,380.204 L1545.6585,407 L1567.9885,407 L1567.9885,248.776 L1545.6585,248.776 L1545.6585,330.759 C1545.6585,350.324333 1541.40517,365.317333 1532.8985,375.738 C1524.39183,386.158667 1512.90783,391.369 1498.4465,391.369 C1486.3245,391.369 1476.70133,387.115667 1469.577,378.609 C1462.45267,370.102333 1458.8905,357.129667 1458.8905,339.691 L1458.8905,339.691 L1458.8905,248.776 L1436.5605,248.776 L1436.5605,342.243 C1436.5605,365.849 1442.03667,383.181333 1452.989,394.24 C1463.94133,405.298667 1477.81783,410.828 1494.6185,410.828 Z M1667.5165,410.828 C1679.6385,410.828 1690.21867,408.648167 1699.257,404.2885 C1708.29533,399.928833 1715.31333,394.027333 1720.311,386.584 C1725.30867,379.140667 1727.8075,370.634 1727.8075,361.064 C1727.8075,352.982667 1726.2125,346.443167 1723.0225,341.4455 C1719.8325,336.447833 1715.73867,332.460333 1710.741,329.483 C1705.74333,326.505667 1700.58617,324.272667 1695.2695,322.784 C1689.95283,321.295333 1685.0615,320.232 1680.5955,319.594 C1678.0435,319.168667 1675.43833,318.690167 1672.78,318.1585 C1670.12167,317.626833 1667.46333,317.095167 1664.805,316.5635 C1662.14667,316.031833 1659.43517,315.553333 1656.6705,315.128 C1637.95583,311.512667 1628.5985,302.899667 1628.5985,289.289 C1628.5985,281.845667 1631.84167,275.837833 1638.328,271.2655 C1644.81433,266.693167 1652.8425,264.407 1662.4125,264.407 C1673.04583,264.407 1681.8715,266.586833 1688.8895,270.9465 C1695.9075,275.306167 1699.84183,282.696333 1700.6925,293.117 L1700.6925,293.117 L1723.3415,293.117 C1721.64017,275.891 1715.207,263.556333 1704.042,256.113 C1692.877,248.669667 1679.21317,244.948 1663.0505,244.948 C1646.03717,244.948 1632.37333,249.414 1622.059,258.346 C1611.74467,267.278 1606.5875,278.443 1606.5875,291.841 C1606.5875,301.623667 1608.98,309.5455 1613.765,315.6065 C1618.55,321.6675 1624.4515,326.293 1631.4695,329.483 C1638.4875,332.673 1645.29283,334.906 1651.8855,336.182 C1656.3515,337.032667 1660.76433,337.830167 1665.124,338.5745 C1669.48367,339.318833 1673.8965,340.222667 1678.3625,341.286 C1688.99583,343.412667 1696.2265,346.017833 1700.0545,349.1015 C1703.8825,352.185167 1705.7965,356.810667 1705.7965,362.978 C1705.7965,371.272 1702.50017,378.077333 1695.9075,383.394 C1689.31483,388.710667 1680.06383,391.369 1668.1545,391.369 C1654.96917,391.369 1644.28267,388.391667 1636.095,382.437 C1627.90733,376.482333 1622.96283,368.294667 1621.2615,357.874 L1621.2615,357.874 L1597.9745,357.874 C1600.31383,375.950667 1607.8635,389.2955 1620.6235,397.9085 C1633.3835,406.5215 1649.0145,410.828 1667.5165,410.828 Z M1830.5255,410.828 C1842.86017,410.828 1853.70617,408.648167 1863.0635,404.2885 C1872.42083,399.928833 1880.18317,393.921 1886.3505,386.265 C1892.51783,378.609 1896.8775,369.996 1899.4295,360.426 L1899.4295,360.426 L1877.7375,360.426 C1874.33483,370.208667 1868.59283,377.864667 1860.5115,383.394 C1852.43017,388.923333 1842.43483,391.688 1830.5255,391.688 C1821.38083,391.688 1812.60833,389.401833 1804.208,384.8295 C1795.80767,380.257167 1788.94917,373.239167 1783.6325,363.7755 C1778.94132,355.425206 1776.31978,345.212239 1775.76788,333.136599 L1775.748,332.673 L1903.5765,332.673 C1903.77144,329.943778 1903.87704,327.482604 1903.89328,325.289479 L1903.8955,324.698 L1903.8955,324.698 L1903.8955,317.999 C1903.8955,305.239 1901.0245,293.329667 1895.2825,282.271 C1889.5405,271.212333 1881.2465,262.227167 1870.4005,255.3155 C1859.5545,248.403833 1846.4755,244.948 1831.1635,244.948 C1816.06417,244.948 1802.66617,248.350667 1790.9695,255.156 C1779.27283,261.961333 1770.18133,271.531333 1763.695,283.866 C1757.20867,296.200667 1753.9655,310.768333 1753.9655,327.569 C1753.9655,344.369667 1757.26183,358.9905 1763.8545,371.4315 C1770.44717,383.8725 1779.4855,393.548833 1790.9695,400.4605 C1802.4535,407.372167 1815.63883,410.828 1830.5255,410.828 Z M1775.92666,312.98285 C1776.70422,303.733096 1779.1665,295.781979 1783.3135,289.1295 C1788.4175,280.941833 1795.1165,274.721333 1803.4105,270.468 C1811.7045,266.214667 1820.6365,264.088 1830.2065,264.088 C1844.66783,264.088 1856.78983,268.447667 1866.5725,277.167 C1876.35517,285.886333 1881.5655,298.008333 1882.2035,313.533 L1882.2035,313.533 L1775.883,313.534 L1775.92666,312.98285 Z M1983.3265,351.175 L1983.3265,330.759 C1983.3265,325.442333 1983.85817,321.720667 1984.9215,319.594 C1985.98483,317.467333 1988.7495,315.340667 1993.2155,313.214 L1993.2155,313.214 L2004.6995,308.11 C2018.52283,301.942667 2029.63467,293.755 2038.035,283.547 C2046.43533,273.339 2050.6355,260.472667 2050.6355,244.948 C2050.6355,231.762667 2047.65817,220.278667 2041.7035,210.496 C2035.74883,200.713333 2027.56117,193.163667 2017.1405,187.847 C2006.71983,182.530333 1994.70417,179.872 1981.0935,179.872 C1967.6955,179.872 1955.83933,182.477167 1945.525,187.6875 C1935.21067,192.897833 1927.12933,200.181667 1921.281,209.539 C1915.43267,218.896333 1912.5085,230.061333 1912.5085,243.034 L1912.5085,243.034 L1933.8815,243.034 C1933.8815,229.423333 1938.13483,218.683667 1946.6415,210.815 C1955.14817,202.946333 1966.63217,199.012 1981.0935,199.012 C1995.55483,199.012 2007.19833,203.105833 2016.024,211.2935 C2024.84967,219.481167 2029.2625,230.699333 2029.2625,244.948 C2029.2625,252.604 2027.88017,259.303 2025.1155,265.045 C2022.35083,270.787 2018.04433,275.784667 2012.196,280.038 C2006.34767,284.291333 1998.9575,288.332 1990.0255,292.16 L1990.0255,292.16 L1980.7745,295.988 C1974.60717,298.54 1970.088,301.198333 1967.217,303.963 C1964.346,306.727667 1962.5915,310.1835 1961.9535,314.3305 C1961.3155,318.4775 1960.9965,323.953667 1960.9965,330.759 L1960.9965,330.759 L1960.9965,351.175 L1983.3265,351.175 Z M1988.7495,407 L1988.7495,374.143 L1956.2115,374.143 L1956.2115,407 L1988.7495,407 Z" id="CanIuse?" fill="#E10098" fill-rule="nonzero"></path>
    </g>
</svg>